<svg id="visual" viewBox="0 0 1366 600" width="1366" height="600" xmlns="http://www.w3.org/2000/svg" xmlns:xlink="http://www.w3.org/1999/xlink" version="1.1"><path d="M0 409L32.5 420.2C65 431.3 130 453.7 195 454.3C260 455 325 434 390 421.7C455 409.3 520 405.7 585.2 409C650.3 412.3 715.7 422.7 780.8 421.5C846 420.3 911 407.7 976 417.3C1041 427 1106 459 1171 468.5C1236 478 1301 465 1333.5 458.5L1366 452L1366 601L1333.5 601C1301 601 1236 601 1171 601C1106 601 1041 601 976 601C911 601 846 601 780.8 601C715.7 601 650.3 601 585.2 601C520 601 455 601 390 601C325 601 260 601 195 601C130 601 65 601 32.5 601L0 601Z" fill="#0066FF" stroke-linecap="round" stroke-linejoin="miter"></path></svg>